<?xml version="1.0" standalone="no"?>
<!DOCTYPE svg PUBLIC "-//W3C//DTD SVG 20010904//EN"
 "http://www.w3.org/TR/2001/REC-SVG-20010904/DTD/svg10.dtd">
<svg version="1.0" xmlns="http://www.w3.org/2000/svg"
 width="1273.000000pt" height="1280.000000pt" viewBox="0 0 1273.000000 1280.000000"
 preserveAspectRatio="xMidYMid meet">
<metadata>
Created by potrace 1.15, written by Peter Selinger 2001-2017
</metadata>
<g transform="translate(0.000000,1280.000000) scale(0.100000,-0.100000)"
fill="#009688" stroke="none">
<path d="M7730 12791 c-14 -5 -329 -130 -700 -278 -371 -149 -1366 -545 -2210
-881 -844 -336 -2003 -798 -2575 -1025 l-1040 -415 -5 1052 c-5 945 -8 1057
-23 1106 -50 166 -169 307 -317 378 -99 47 -163 62 -263 62 -116 0 -249 -41
-340 -105 -112 -78 -214 -233 -242 -370 -13 -61 -15 -837 -15 -5926 0 -5799 0
-5857 20 -5933 29 -113 73 -190 160 -277 87 -87 178 -138 292 -164 66 -14 602
-15 5928 -13 l5855 3 67 26 c102 40 173 87 243 160 273 290 191 760 -164 937
-45 23 -97 44 -116 48 l-35 6 0 152 c0 83 7 968 15 1966 8 998 15 2234 16
2745 0 512 1 1459 2 2105 1 646 2 1452 2 1790 l0 616 -25 49 c-31 61 -100 111
-167 121 -51 7 -44 9 -908 -246 -115 -34 -253 -75 -305 -90 -52 -15 -189 -56
-305 -90 -115 -34 -268 -79 -340 -100 -71 -21 -206 -60 -300 -88 -93 -28 -178
-52 -187 -54 -18 -3 -12 -11 -1186 1767 -304 462 -568 859 -585 882 -18 23
-49 51 -70 63 -42 24 -136 35 -177 21z"/>
</g>
</svg>
