<?xml version="1.0" standalone="no"?>
<!DOCTYPE svg PUBLIC "-//W3C//DTD SVG 20010904//EN"
 "http://www.w3.org/TR/2001/REC-SVG-20010904/DTD/svg10.dtd">
<svg version="1.0" xmlns="http://www.w3.org/2000/svg"
 width="1280.000000pt" height="1242.000000pt" viewBox="0 0 1280.000000 1242.000000"
 preserveAspectRatio="xMidYMid meet">
<metadata>
Created by potrace 1.15, written by Peter Selinger 2001-2017
</metadata>
<g transform="translate(0.000000,1242.000000) scale(0.100000,-0.100000)"
fill="#009688" stroke="none">
<path d="M55 12408 c-2 -7 -15 -54 -29 -105 l-26 -92 0 -5137 0 -5136 39 -87
c453 -1013 824 -1838 830 -1844 4 -4 336 47 737 113 401 66 986 163 1299 215
314 52 829 137 1145 189 316 52 850 141 1185 196 336 55 869 144 1185 196 316
52 845 139 1175 194 330 55 859 142 1175 194 316 52 850 141 1185 196 1152
190 1761 291 2275 376 283 46 527 87 543 90 l27 6 0 4808 0 4808 -27 9 c-21 7
-44 3 -102 -20 -70 -27 -228 -88 -811 -317 -124 -49 -342 -134 -485 -190 -143
-56 -350 -137 -460 -180 -110 -43 -317 -124 -460 -180 -143 -56 -363 -142
-489 -192 -162 -64 -236 -88 -255 -84 -119 24 -535 111 -611 126 -134 27 -450
92 -680 140 -107 22 -260 54 -340 70 -80 16 -233 48 -340 70 -107 22 -260 54
-340 70 -80 16 -233 48 -340 70 -235 49 -550 114 -680 140 -52 11 -183 38
-290 60 -107 22 -260 54 -340 70 -80 16 -233 48 -340 70 -107 22 -260 54 -340
70 -80 16 -233 48 -340 70 -107 22 -260 54 -340 70 -80 16 -233 48 -340 70
-352 73 -483 100 -630 130 -80 16 -233 48 -340 70 -107 22 -260 54 -340 70
-80 16 -233 48 -340 70 -107 22 -260 54 -340 70 -80 16 -233 48 -340 70 -107
22 -260 54 -340 70 -161 33 -447 92 -675 139 -82 18 -215 45 -295 61 -80 16
-188 38 -240 49 -113 25 -110 24 -115 9z"/>
</g>
</svg>
