<?xml version="1.0" standalone="no"?>
<!DOCTYPE svg PUBLIC "-//W3C//DTD SVG 20010904//EN"
 "http://www.w3.org/TR/2001/REC-SVG-20010904/DTD/svg10.dtd">
<svg version="1.0" xmlns="http://www.w3.org/2000/svg"
 width="1130.000000pt" height="1280.000000pt" viewBox="0 0 1130.000000 1280.000000"
 preserveAspectRatio="xMidYMid meet">
<metadata>
Created by potrace 1.15, written by Peter Selinger 2001-2017
</metadata>
<g transform="translate(0.000000,1280.000000) scale(0.100000,-0.100000)"
fill="#009688" stroke="none">
<path d="M10890 12746 c-102 -29 -270 -77 -375 -106 -104 -29 -266 -74 -360
-100 -93 -26 -255 -71 -360 -100 -104 -29 -266 -74 -360 -100 -93 -26 -255
-71 -360 -100 -104 -29 -266 -74 -360 -100 -253 -71 -547 -152 -755 -210 -102
-28 -270 -75 -375 -104 -104 -29 -275 -77 -380 -106 -104 -29 -251 -70 -325
-91 -74 -21 -180 -50 -235 -65 -55 -15 -129 -35 -165 -44 -105 -29 -247 -67
-355 -95 -55 -14 -114 -33 -132 -41 -17 -7 -36 -14 -43 -14 -6 0 -89 -22 -183
-49 -161 -45 -302 -85 -754 -210 -101 -28 -265 -74 -365 -102 -221 -61 -523
-145 -753 -209 -93 -26 -255 -71 -360 -100 -104 -29 -248 -69 -320 -89 -103
-29 -139 -35 -175 -30 -25 4 -83 12 -130 18 -47 6 -148 20 -225 31 -77 10
-241 33 -365 50 -124 17 -256 35 -295 40 -159 23 -359 50 -505 70 -85 11 -184
25 -220 30 -36 5 -166 23 -290 40 -124 17 -254 35 -290 40 -36 5 -135 19 -220
30 -85 11 -200 27 -255 35 l-100 15 -72 -26 -73 -27 0 -4627 0 -4627 73 -16
c39 -8 101 -20 137 -26 36 -5 123 -24 195 -41 72 -16 189 -44 260 -60 72 -16
189 -43 260 -60 72 -17 189 -44 260 -60 72 -16 189 -43 260 -60 72 -17 189
-44 260 -60 72 -16 189 -43 260 -60 329 -76 398 -92 515 -119 174 -40 2540
-586 2675 -618 157 -36 329 -76 490 -113 77 -18 194 -45 260 -60 66 -15 183
-42 260 -60 77 -18 194 -45 260 -60 66 -15 183 -42 260 -60 77 -18 194 -45
260 -60 66 -15 172 -40 235 -54 l115 -27 265 41 c146 23 292 46 325 51 33 5
146 22 250 39 231 36 688 108 770 121 33 5 146 22 250 39 105 16 305 48 445
70 245 38 465 73 1025 161 143 22 352 55 465 72 l205 32 3 6062 c2 5304 0
6062 -13 6066 -24 10 -186 47 -198 46 -7 0 -95 -24 -197 -53z"/>
</g>
</svg>
