<?xml version="1.0" standalone="no"?>
<!DOCTYPE svg PUBLIC "-//W3C//DTD SVG 20010904//EN"
 "http://www.w3.org/TR/2001/REC-SVG-20010904/DTD/svg10.dtd">
<svg version="1.0" xmlns="http://www.w3.org/2000/svg"
 width="1280.000000pt" height="815.000000pt" viewBox="0 0 1280.000000 815.000000"
 preserveAspectRatio="xMidYMid meet">
<metadata>
Created by potrace 1.15, written by Peter Selinger 2001-2017
</metadata>
<g transform="translate(0.000000,815.000000) scale(0.100000,-0.100000)"
fill="#009688" stroke="none">
<path d="M3895 8136 c-122 -30 -206 -99 -245 -202 -20 -54 -20 -70 -21 -1847
0 -1732 -1 -1790 -18 -1740 -39 113 -106 178 -219 213 -62 19 -94 20 -1152 20
-1065 0 -1089 0 -1154 -20 -79 -25 -141 -70 -179 -131 -60 -98 -57 26 -57
-2121 l0 -1968 -332 0 c-210 0 -348 -4 -373 -11 -79 -22 -145 -93 -145 -157 0
-64 54 -130 129 -157 39 -13 691 -15 6271 -15 5580 0 6232 2 6271 15 75 27
129 93 129 157 0 64 -66 135 -145 157 -25 7 -163 11 -372 11 l-333 0 0 1273
c0 1337 0 1319 -44 1404 -39 76 -131 140 -234 162 -75 16 -2149 16 -2224 0
-136 -29 -234 -118 -264 -239 -5 -21 -11 537 -14 1365 l-5 1400 -27 50 c-50
94 -132 153 -243 175 -43 8 -360 10 -1145 8 l-1085 -3 -56 -23 c-99 -40 -170
-116 -195 -212 -10 -36 -13 167 -13 1056 -1 980 -3 1106 -17 1154 -31 103 -92
167 -205 213 l-54 22 -1090 2 c-838 1 -1102 -1 -1140 -11z"/>
</g>
</svg>
